<svg width="40" height="40" viewBox="0 0 40 40" fill="none" xmlns="http://www.w3.org/2000/svg">
<path d="M20 15.0417C19.7778 15.0417 19.5628 15.0833 19.355 15.1667C19.1462 15.25 18.9723 15.3611 18.8334 15.5L11.1667 23.1667C10.8612 23.4722 10.7084 23.8611 10.7084 24.3333C10.7084 24.8056 10.8612 25.1945 11.1667 25.5C11.4723 25.8056 11.8612 25.9583 12.3334 25.9583C12.8056 25.9583 13.1945 25.8056 13.5 25.5L20 19L26.5 25.5C26.8056 25.8056 27.1945 25.9583 27.6667 25.9583C28.1389 25.9583 28.5278 25.8056 28.8334 25.5C29.1389 25.1945 29.2917 24.8056 29.2917 24.3333C29.2917 23.8611 29.1389 23.4722 28.8334 23.1667L21.1667 15.5C21 15.3333 20.8195 15.2156 20.625 15.1467C20.4306 15.0767 20.2223 15.0417 20 15.0417V15.0417Z" fill="#222222"/>
</svg>
