<svg width="21" height="21" viewBox="0 0 21 21" fill="none" xmlns="http://www.w3.org/2000/svg">
<path d="M7.89692 10.5C7.89692 10.3833 7.9188 10.2704 7.96255 10.1613C8.0063 10.0517 8.06463 9.96037 8.13755 9.88745L12.1625 5.86245C12.323 5.70203 12.5271 5.62183 12.775 5.62183C13.023 5.62183 13.2271 5.70203 13.3875 5.86245C13.548 6.02287 13.6282 6.22703 13.6282 6.47495C13.6282 6.72287 13.548 6.92703 13.3875 7.08745L9.97505 10.5L13.3875 13.9125C13.548 14.0729 13.6282 14.277 13.6282 14.525C13.6282 14.7729 13.548 14.977 13.3875 15.1375C13.2271 15.2979 13.023 15.3781 12.775 15.3781C12.5271 15.3781 12.323 15.2979 12.1625 15.1375L8.13755 11.1125C8.05005 11.025 7.98821 10.9302 7.95205 10.8281C7.9153 10.726 7.89692 10.6166 7.89692 10.5Z" fill="black"/>
</svg>
