<svg width="60" height="60" viewBox="0 0 60 60" fill="none" xmlns="http://www.w3.org/2000/svg">
<path d="M0 24.0898C0 19.1022 1.113 14.5257 3.339 10.3601C5.565 6.19451 8.552 2.74115 12.3 0L15.825 4.78803C12.825 6.98254 10.437 9.75062 8.661 13.0923C6.885 16.4339 5.998 20.0997 6 24.0898H0ZM54 24.0898C54 20.0997 53.112 16.4339 51.336 13.0923C49.56 9.75062 47.174 6.98254 44.178 4.78803L47.703 0C51.453 2.74314 54.441 6.19751 56.667 10.3631C58.893 14.5287 60.004 19.1042 60 24.0898H54ZM6 51.0224V45.0374H12V24.0898C12 19.9501 13.25 16.2713 15.75 13.0534C18.25 9.83541 21.5 7.72868 25.5 6.73317V4.6384C25.5 3.39152 25.938 2.33117 26.814 1.45736C27.69 0.583541 28.752 0.147631 30 0.149626C31.25 0.149626 32.313 0.586533 33.189 1.46035C34.065 2.33416 34.502 3.39352 34.5 4.6384V6.73317C38.5 7.73067 41.75 9.8384 44.25 13.0564C46.75 16.2743 48 19.9521 48 24.0898V45.0374H54V51.0224H6ZM30 60C28.35 60 26.937 59.4135 25.761 58.2404C24.585 57.0673 23.998 55.6589 24 54.015H36C36 55.6608 35.412 57.0703 34.236 58.2434C33.06 59.4165 31.648 60.002 30 60ZM18 45.0374H42V24.0898C42 20.798 40.825 17.9801 38.475 15.6359C36.125 13.2918 33.3 12.1197 30 12.1197C26.7 12.1197 23.875 13.2918 21.525 15.6359C19.175 17.9801 18 20.798 18 24.0898V45.0374Z" fill="black"/>
</svg>
