<svg width="30" height="30" viewBox="0 0 30 30" fill="none" xmlns="http://www.w3.org/2000/svg">
<path d="M24.4336 22.4414C24.5647 22.572 24.6688 22.7273 24.7397 22.8982C24.8107 23.0692 24.8472 23.2524 24.8472 23.4375C24.8472 23.6226 24.8107 23.8058 24.7397 23.9768C24.6688 24.1477 24.5647 24.3029 24.4336 24.4336C24.1683 24.6955 23.8104 24.8424 23.4375 24.8424C23.0647 24.8424 22.7068 24.6955 22.4414 24.4336L15 16.9922L7.55863 24.4336C7.29326 24.6955 6.9354 24.8424 6.56254 24.8424C6.18967 24.8424 5.83181 24.6955 5.56644 24.4336C5.43534 24.3029 5.33132 24.1477 5.26034 23.9768C5.18937 23.8058 5.15283 23.6226 5.15283 23.4375C5.15283 23.2524 5.18937 23.0692 5.26034 22.8982C5.33132 22.7273 5.43534 22.572 5.56644 22.4414L13.0078 15L5.56644 7.55859C5.30226 7.29441 5.15385 6.93611 5.15385 6.5625C5.15385 6.37751 5.19028 6.19433 5.26108 6.02342C5.33187 5.85251 5.43563 5.69721 5.56644 5.5664C5.69725 5.4356 5.85254 5.33183 6.02345 5.26104C6.19436 5.19025 6.37754 5.15381 6.56254 5.15381C6.93614 5.15381 7.29445 5.30222 7.55863 5.5664L15 13.0078L22.4414 5.5664C22.7056 5.30222 23.0639 5.15381 23.4375 5.15381C23.8111 5.15381 24.1695 5.30222 24.4336 5.5664C24.6978 5.83058 24.8462 6.18889 24.8462 6.5625C24.8462 6.93611 24.6978 7.29441 24.4336 7.55859L16.9922 15L24.4336 22.4414Z" fill="black"/>
</svg>
