<svg width="24" height="24" viewBox="0 0 24 24" fill="none" xmlns="http://www.w3.org/2000/svg">
<path d="M15.6429 14.1429C15.4724 14.1429 15.3089 14.2106 15.1883 14.3312C15.0678 14.4518 15.0001 14.6153 15.0001 14.7858C15.0001 14.9563 15.0678 15.1198 15.1883 15.2403C15.3089 15.3609 15.4724 15.4286 15.6429 15.4286H18.6429C18.8134 15.4286 18.9769 15.3609 19.0975 15.2403C19.218 15.1198 19.2858 14.9563 19.2858 14.7858C19.2858 14.6153 19.218 14.4518 19.0975 14.3312C18.9769 14.2106 18.8134 14.1429 18.6429 14.1429H15.6429ZM1.71777 7.50005C1.71777 6.64757 2.05642 5.83 2.65922 5.22721C3.26201 4.62441 4.07958 4.28577 4.93206 4.28577H19.0715C19.924 4.28577 20.7415 4.62441 21.3443 5.22721C21.9471 5.83 22.2858 6.64757 22.2858 7.50005V16.5001C22.2858 17.3525 21.9471 18.1701 21.3443 18.7729C20.7415 19.3757 19.924 19.7143 19.0715 19.7143H4.93292C4.08043 19.7143 3.26287 19.3757 2.66007 18.7729C2.05728 18.1701 1.71863 17.3525 1.71863 16.5001V7.50005H1.71777ZM4.93206 5.57148C4.42057 5.57148 3.93003 5.77467 3.56835 6.13635C3.20668 6.49802 3.00349 6.98856 3.00349 7.50005V8.14291H21.0001V7.50005C21.0001 6.98856 20.7969 6.49802 20.4352 6.13635C20.0735 5.77467 19.583 5.57148 19.0715 5.57148H4.93206ZM3.00349 16.5001C3.00349 17.0115 3.20668 17.5021 3.56835 17.8638C3.93003 18.2254 4.42057 18.4286 4.93206 18.4286H19.0715C19.583 18.4286 20.0735 18.2254 20.4352 17.8638C20.7969 17.5021 21.0001 17.0115 21.0001 16.5001V9.42862H3.00435V16.5001H3.00349Z" fill="black"/>
</svg>
