<svg width="76" height="76" viewBox="0 0 76 76" fill="none" xmlns="http://www.w3.org/2000/svg">
<g filter="url(#filter0_d_2634_2668)">
<circle cx="34" cy="33" r="30" fill="#3D277D"/>
</g>
<path d="M34 36.375C32.7005 36.3761 31.421 36.0552 30.2759 35.4409C29.1307 34.8266 28.1557 33.9381 27.4379 32.8549L29.3121 31.6095C29.8252 32.3832 30.5218 33.0179 31.3398 33.4569C32.1577 33.896 33.0716 34.1257 34 34.1257C34.9284 34.1257 35.8423 33.896 36.6602 33.4569C37.4782 33.0179 38.1748 32.3832 38.6879 31.6095L40.5621 32.8549C39.8443 33.9381 38.8693 34.8266 37.7241 35.4409C36.579 36.0552 35.2995 36.3761 34 36.375ZM38.5 24C38.055 24 37.62 24.132 37.25 24.3792C36.88 24.6264 36.5916 24.9778 36.4213 25.389C36.251 25.8001 36.2064 26.2525 36.2932 26.6889C36.3801 27.1254 36.5943 27.5263 36.909 27.841C37.2237 28.1557 37.6246 28.3699 38.061 28.4568C38.4975 28.5436 38.9499 28.499 39.361 28.3287C39.7722 28.1584 40.1236 27.87 40.3708 27.5C40.618 27.13 40.75 26.695 40.75 26.25C40.753 25.9537 40.6969 25.6597 40.5849 25.3854C40.4729 25.1111 40.3072 24.8618 40.0977 24.6523C39.8882 24.4428 39.6389 24.2771 39.3646 24.1651C39.0902 24.0531 38.7963 23.997 38.5 24ZM29.5 24C29.055 24 28.62 24.132 28.25 24.3792C27.88 24.6264 27.5916 24.9778 27.4213 25.389C27.251 25.8001 27.2064 26.2525 27.2932 26.6889C27.3801 27.1254 27.5943 27.5263 27.909 27.841C28.2237 28.1557 28.6246 28.3699 29.061 28.4568C29.4975 28.5436 29.9499 28.499 30.361 28.3287C30.7722 28.1584 31.1236 27.87 31.3708 27.5C31.618 27.13 31.75 26.695 31.75 26.25C31.753 25.9537 31.6969 25.6597 31.5849 25.3854C31.4729 25.1111 31.3072 24.8618 31.0977 24.6523C30.8882 24.4428 30.6389 24.2771 30.3646 24.1651C30.0902 24.0531 29.7963 23.997 29.5 24Z" fill="white"/>
<path d="M35.953 48.75L34 47.625L38.5 39.75H45.25C45.5456 39.7504 45.8384 39.6926 46.1116 39.5796C46.3847 39.4667 46.633 39.301 46.842 39.092C47.051 38.883 47.2167 38.6347 47.3296 38.3616C47.4426 38.0884 47.5004 37.7956 47.5 37.5V21.75C47.5004 21.4544 47.4426 21.1616 47.3296 20.8884C47.2167 20.6153 47.051 20.367 46.842 20.158C46.633 19.949 46.3847 19.7833 46.1116 19.6704C45.8384 19.5575 45.5456 19.4996 45.25 19.5H22.75C22.4544 19.4996 22.1616 19.5575 21.8884 19.6704C21.6153 19.7833 21.367 19.949 21.158 20.158C20.949 20.367 20.7833 20.6153 20.6704 20.8884C20.5575 21.1616 20.4996 21.4544 20.5 21.75V37.5C20.4996 37.7956 20.5575 38.0884 20.6704 38.3616C20.7833 38.6347 20.949 38.883 21.158 39.092C21.367 39.301 21.6153 39.4667 21.8884 39.5796C22.1616 39.6926 22.4544 39.7504 22.75 39.75H32.875V42H22.75C21.5565 42 20.4119 41.5259 19.568 40.682C18.7241 39.8381 18.25 38.6935 18.25 37.5V21.75C18.2499 21.159 18.3661 20.5738 18.5922 20.0278C18.8183 19.4817 19.1498 18.9856 19.5677 18.5677C19.9856 18.1498 20.4817 17.8183 21.0278 17.5922C21.5738 17.3661 22.159 17.2499 22.75 17.25H45.25C45.841 17.2499 46.4262 17.3661 46.9722 17.5922C47.5183 17.8183 48.0144 18.1498 48.4323 18.5677C48.8502 18.9856 49.1817 19.4817 49.4078 20.0278C49.6339 20.5738 49.7501 21.159 49.75 21.75V37.5C49.75 38.6935 49.2759 39.8381 48.432 40.682C47.5881 41.5259 46.4435 42 45.25 42H39.8106L35.953 48.75Z" fill="white"/>
<defs>
<filter id="filter0_d_2634_2668" x="0" y="0" width="76" height="76" filterUnits="userSpaceOnUse" color-interpolation-filters="sRGB">
<feFlood flood-opacity="0" result="BackgroundImageFix"/>
<feColorMatrix in="SourceAlpha" type="matrix" values="0 0 0 0 0 0 0 0 0 0 0 0 0 0 0 0 0 0 127 0" result="hardAlpha"/>
<feOffset dx="4" dy="5"/>
<feGaussianBlur stdDeviation="4"/>
<feComposite in2="hardAlpha" operator="out"/>
<feColorMatrix type="matrix" values="0 0 0 0 0 0 0 0 0 0 0 0 0 0 0 0 0 0 0.25 0"/>
<feBlend mode="normal" in2="BackgroundImageFix" result="effect1_dropShadow_2634_2668"/>
<feBlend mode="normal" in="SourceGraphic" in2="effect1_dropShadow_2634_2668" result="shape"/>
</filter>
</defs>
</svg>
