<svg width="54" height="72" viewBox="0 0 54 72" fill="none" xmlns="http://www.w3.org/2000/svg">
<path d="M0 0H54V72H0V0ZM49.5 67.5V4.5H4.5V67.5H49.5ZM27 18V22.5H9V18H27ZM27 36V40.5H9V36H27ZM27 54V58.5H9V54H27ZM44.332 15.082L36 23.4141L29.918 17.332L33.082 14.168L36 17.0859L41.168 11.918L44.332 15.082ZM44.332 33.082L36 41.4141L29.918 35.332L33.082 32.168L36 35.0859L41.168 29.918L44.332 33.082ZM44.332 51.082L36 59.4141L29.918 53.332L33.082 50.168L36 53.0859L41.168 47.918L44.332 51.082Z" fill="#383431"/>
</svg>
