<svg width="112" height="139" viewBox="0 0 112 139" fill="none" xmlns="http://www.w3.org/2000/svg">
<g clip-path="url(#clip0_2634_3054)">
<path opacity="0.18" d="M31.9297 33.114C26.0542 38.5158 24.101 46.3619 19.1134 52.4174C13.2829 59.5001 3.19627 64.3627 1.09202 72.9184C-1.21366 82.3401 7.40744 90.9775 16.1027 96.8136C20.29 99.6266 24.7874 102.339 27.5118 106.308C29.2159 108.792 30.1223 111.626 31.4871 114.268C35.8176 122.702 45.3874 129.139 55.8848 129.608C66.3823 130.077 77.1156 123.97 79.9592 115.06C81.3479 110.703 81.0008 105.829 83.6907 101.987C87.2102 96.9467 94.6016 95.392 99.947 91.8086C110.171 84.9594 110.736 69.5871 101.036 62.1613C92.5318 55.6576 78.3055 54.8055 73.5246 45.8203C72.2286 43.3855 71.8602 40.6472 70.726 38.1517C64.824 25.1746 42.0588 23.7996 31.9297 33.114Z" fill="#5D4B93"/>
<path d="M50.4227 66.2908C53.5711 66.2908 56.1233 64.0427 56.1233 61.2695C56.1233 58.4962 53.5711 56.2481 50.4227 56.2481C47.2744 56.2481 44.7222 58.4962 44.7222 61.2695C44.7222 64.0427 47.2744 66.2908 50.4227 66.2908Z" fill="#3F3D56"/>
<path d="M69.7267 99.2624C69.7267 99.2624 69.406 105.565 68.9449 106.786C68.4838 108.007 69.0324 108.567 67.5853 108.887C66.1383 109.207 66.6472 102.337 66.6472 102.337L67.1348 99.7036L69.7267 99.2624Z" fill="url(#paint0_linear_2634_3054)"/>
<path d="M54.5969 101.095L57.9441 118.353H60.8063L61.5219 108.411L62.1818 120.893H65.3223C65.3223 120.893 68.0228 107.221 67.5246 104.704C67.3879 103.874 67.0912 103.071 66.6474 102.33L54.5969 101.095Z" fill="#25233A"/>
<path d="M56.571 74.1883C56.4544 72.8553 56.5366 71.4383 57.3502 70.3108C57.6815 69.8574 58.1171 69.4702 58.6288 69.1742C59.1405 68.8783 59.717 68.6802 60.3211 68.5926C62.0622 68.3592 63.7663 69.0595 65.3564 69.7365C67.6886 70.745 70.0367 71.7628 72.0879 73.1611C74.1392 74.5594 75.9016 76.392 76.6781 78.5747C77.0271 79.6375 77.2134 80.7366 77.232 81.8429C77.2953 82.8748 77.2143 83.9098 76.9908 84.9243C76.5874 86.4784 75.713 87.9069 74.4609 89.058C73.2088 90.209 71.6258 91.0394 69.8803 91.4607C65.905 92.3712 61.3758 91.0849 57.7795 92.824C57.5439 92.9683 57.2701 93.0567 56.9845 93.0808C56.7904 93.0644 56.6064 92.9971 56.4562 92.8877C56.306 92.7783 56.1964 92.6317 56.1417 92.4669C56.0397 92.1351 56.0397 91.7855 56.1417 91.4537C56.3932 90.4232 56.982 89.4802 57.8352 88.7411C58.9324 87.7957 60.3953 87.2494 61.5932 86.4067C61.797 86.2871 61.9528 86.1139 62.0384 85.9118C62.1815 85.4449 61.6303 85.0597 61.1241 84.887C60.6179 84.7142 60.0136 84.5601 59.8122 84.1189C59.6479 83.7618 59.8122 83.3649 59.9262 82.9914C60.3847 81.3573 59.3961 80.2601 58.3758 79.0486C57.1912 77.6479 56.7194 75.8971 56.571 74.1883Z" fill="#3F3D56"/>
<path d="M65.3963 74.6715C65.3963 74.6715 67.1826 77.3024 69.2365 79.0439C71.2904 80.7854 74.7887 83.9159 72.5598 86.2923C71.2208 87.7191 69.5158 88.845 67.5854 89.5769L63.0615 85.5733V79.0369L65.3963 74.6715Z" fill="#25233A"/>
<path d="M49.7178 72.3347L54.0323 72.0522C54.0323 72.0522 52.8212 79.429 58.7099 81.8242C64.5986 84.2193 68.2215 84.7188 68.6216 86.5677C69.0218 88.4166 70.5801 99.0873 70.5801 99.0873L67.6146 99.6966L67.5245 91.4443L67.6384 101.854C67.6384 101.854 61.2143 105.028 59.3645 104.403C57.5147 103.777 53.6321 103.257 53.7249 97.9527C53.8176 92.6489 56.6401 88.8951 53.5765 84.8589C50.5128 80.8227 49.6383 74.2466 49.7178 72.3347Z" fill="#5D4B93"/>
<path d="M49.7178 72.3347L54.0323 72.0522C54.0323 72.0522 52.8212 79.429 58.7099 81.8242C64.5986 84.2193 68.2215 84.7188 68.6216 86.5677C69.0218 88.4166 70.5801 99.0873 70.5801 99.0873L67.6146 99.6966L67.5245 91.4443L67.6384 101.854C67.6384 101.854 61.2143 105.028 59.3645 104.403C57.5147 103.777 53.6321 103.257 53.7249 97.9527C53.8176 92.6489 56.6401 88.8951 53.5765 84.8589C50.5128 80.8227 49.6383 74.2466 49.7178 72.3347Z" fill="url(#paint1_linear_2634_3054)"/>
<path d="M59.9899 82.34C59.9899 82.34 60.1542 84.5343 61.7549 84.4807C63.3556 84.427 63.3583 83.722 63.3583 83.722L64.376 79.8982L59.9899 80.1316C59.9899 80.1316 60.4881 81.7517 59.9899 82.34Z" fill="url(#paint2_linear_2634_3054)"/>
<path d="M60.1888 81.1354C60.1888 81.1354 59.9874 82.2653 60.8116 82.5851C61.6358 82.9049 62.9636 82.5034 63.2843 82.1812L63.3585 83.7126L64.1005 80.923L60.1888 81.1354Z" fill="#222A72"/>
<path d="M58.617 74.597C58.617 74.597 57.6921 80.4051 61.0155 81.5793C64.3388 82.7535 65.3565 79.602 65.7858 78.0893C66.2152 76.5766 64.9722 71.1561 62.3406 71.9988C60.7997 72.4661 59.4861 73.3827 58.617 74.597Z" fill="url(#paint3_linear_2634_3054)"/>
<path d="M50.8069 72.2646C50.8069 72.2646 51.1169 70.2336 51.1249 70.1963C51.1524 70.0078 51.121 69.8162 51.0341 69.6422C50.9473 69.4683 50.8082 69.3184 50.632 69.2088C50.3139 68.9987 49.9641 68.5085 49.9641 67.3763C49.9641 66.2441 51.3263 65.0185 51.8881 65.5087C52.45 65.999 52.4526 66.3865 52.9747 66.4589C53.4968 66.5312 53.094 67.6984 52.9747 68.093C52.8555 68.4875 53.6161 72.0872 53.6161 72.0872L50.8069 72.2646Z" fill="url(#paint4_linear_2634_3054)"/>
<path d="M67.5245 91.4537L69.2472 99.3605L67.6146 99.6966L67.5245 91.4537Z" fill="url(#paint5_linear_2634_3054)"/>
<path d="M62.1816 120.893C62.1816 120.893 61.4369 127.36 62.6587 132.615H63.5094L65.3221 120.893H62.1816ZM57.944 118.354L59.6507 131.541L60.2761 131.307C60.2761 131.307 61.4475 121.97 61.3521 121.068C61.2567 120.167 60.8062 118.349 60.8062 118.349L57.944 118.354Z" fill="#25233A"/>
<path d="M60.276 131.312C60.276 131.312 60.655 131.877 60.6126 132.278C60.5808 132.554 58.4182 134.916 56.8731 136.191C55.2035 137.568 53.5842 137.059 53.5842 137.059C52.98 137.006 52.6673 135.782 53.1284 135.425C54.1334 134.667 55.2627 134.046 56.4782 133.586C59.2477 132.554 59.6585 131.531 59.6585 131.531L60.276 131.312ZM62.6585 132.614C62.4922 133.073 62.4318 133.557 62.4809 134.036C62.587 134.72 65.9262 138.068 65.9262 138.068C65.9262 138.068 68.6612 139.632 69.6206 138.287C70.58 136.942 66.7902 135.159 66.0375 134.785C65.2849 134.412 63.5092 132.617 63.5092 132.617L62.6585 132.614Z" fill="#25233A"/>
<path d="M43.5267 53.5077C43.8897 54.532 44.6091 55.43 45.583 56.0747C46.557 56.7194 47.7363 57.0782 48.9543 57.1004C50.4781 57.1004 52.1928 56.5891 53.7829 54.8967C58.0233 50.3865 50.2184 42.4378 60.7318 32.8269C71.2451 23.2161 72.3396 6.17939 53.457 5.04719C39.0372 4.18812 33.1379 12.0878 31.4789 17.0322V22.0442L41.6079 25.5458C41.6079 25.5458 45.4825 15.1903 51.8616 16.5093C58.2406 17.8282 52.2326 27.1146 48.2069 30.6442C39.3367 38.4249 41.9021 49.0606 43.5267 53.5077Z" fill="#3F3D56"/>
<path d="M43.5268 47.1603C43.8923 48.1834 44.6123 49.08 45.5857 49.7243C46.5591 50.3687 47.7371 50.7284 48.9544 50.753C50.4783 50.753 52.1929 50.1437 53.7831 48.4536C58.0234 43.9411 49.6779 39.4567 60.1939 29.8458C70.7099 20.235 72.3477 1.17667 53.465 0.0514787C34.5824 -1.07372 31.4869 17.0391 31.4869 17.0391L41.616 20.5408C41.616 20.5408 45.4826 10.1969 51.8617 11.5112C58.2407 12.8255 52.2327 22.1142 48.207 25.6462C39.3368 33.4198 41.9022 42.7132 43.5268 47.1603Z" fill="#5D4B93"/>
<path d="M50.4227 63.0064C53.5711 63.0064 56.1233 60.7583 56.1233 57.9851C56.1233 55.2118 53.5711 52.9637 50.4227 52.9637C47.2744 52.9637 44.7222 55.2118 44.7222 57.9851C44.7222 60.7583 47.2744 63.0064 50.4227 63.0064Z" fill="#5D4B93"/>
<path d="M27.692 60.3309C28.2584 59.2633 27.7351 57.9934 26.5231 57.4945C25.3112 56.9956 23.8695 57.4565 23.3031 58.5241C22.7367 59.5916 23.2599 60.8615 24.4719 61.3604C25.6839 61.8594 27.1255 61.3984 27.692 60.3309Z" fill="#3F3D56"/>
<path d="M21.4691 57.2121C21.7836 57.5745 22.2191 57.841 22.7144 57.9742C23.2097 58.1073 23.7399 58.1004 24.2306 57.9545C24.8401 57.7631 25.4391 57.3359 25.7968 56.4558C26.7456 54.1213 22.3198 51.934 24.9408 46.7492C27.5619 41.5644 25.1899 34.6102 17.462 36.5804C11.5573 38.0791 10.4999 41.9893 10.651 44.179L11.4752 46.1773L16.0971 46.28C16.0971 46.28 15.9381 41.6508 18.7049 41.3613C21.4717 41.0719 20.5998 45.5516 19.5715 47.4776C17.3082 51.7216 20.0857 55.6434 21.4691 57.2121Z" fill="#3F3D56"/>
<path d="M20.4248 54.6746C20.7381 55.0377 21.1731 55.3047 21.6683 55.4379C22.1634 55.5711 22.6936 55.5638 23.1837 55.417C23.7959 55.2255 24.3789 54.761 24.7341 53.8809C25.6855 51.5465 21.6148 50.8111 24.2332 45.6263C26.8516 40.4416 24.3683 32.6189 16.6377 34.5821C8.90708 36.5454 10.6642 44.179 10.6642 44.179L15.2861 44.2794C15.2861 44.2794 15.1297 39.6525 17.8939 39.3631C20.6581 39.0736 19.7888 43.5534 18.7605 45.4769C16.4946 49.7209 19.0388 53.1059 20.4248 54.6746Z" fill="#5D4B93"/>
<path d="M26.0241 60.0327C27.2257 59.5147 27.7229 58.2367 27.1348 57.1783C26.5467 56.1199 25.0959 55.6818 23.8943 56.1999C22.6927 56.7179 22.1954 57.9959 22.7835 59.0543C23.3717 60.1127 24.8225 60.5508 26.0241 60.0327Z" fill="#5D4B93"/>
<path d="M14.8252 79.8962C14.9262 80.3084 14.8863 80.7378 14.7104 81.13C14.5346 81.5223 14.2307 81.8598 13.8372 82.1001C13.4437 82.3403 12.9782 82.4724 12.4995 82.4797C12.0208 82.487 11.5504 82.3693 11.1477 82.1412C10.7449 81.9132 10.4279 81.5851 10.2367 81.1985C10.0455 80.8119 9.98867 80.384 10.0734 79.9689C10.158 79.5539 10.3805 79.1702 10.7125 78.8664C11.0446 78.5626 11.4715 78.3524 11.9391 78.2621C12.2505 78.2017 12.5723 78.1961 12.8862 78.2457C13.2 78.2952 13.4996 78.3988 13.7678 78.5507C14.036 78.7026 14.2675 78.8996 14.4489 79.1305C14.6304 79.3614 14.7583 79.6216 14.8252 79.8962Z" fill="#3F3D56"/>
<path d="M8.79362 77.6852C9.05048 78.0814 9.44228 78.3965 9.91359 78.5859C10.3849 78.7752 10.9119 78.8292 11.42 78.7403C12.0534 78.6213 12.7133 78.2734 13.1956 77.4377C14.4862 75.2247 10.4235 72.5517 13.7919 67.7148C17.1603 62.8779 15.8484 55.7182 7.89255 56.771C1.81565 57.574 0.185777 61.3278 0.0108643 63.5152L0.540904 65.5928L5.09924 66.2324C5.09924 66.2324 5.62928 61.6266 8.41729 61.6593C11.2053 61.692 9.67084 66.0317 8.36694 67.8198C5.48617 71.7627 7.65669 75.9717 8.79362 77.6852Z" fill="#3F3D56"/>
<path d="M8.13613 75.0497C8.39329 75.4457 8.78513 75.7605 9.25635 75.9499C9.72758 76.1392 10.2544 76.1934 10.7625 76.1048C11.3959 75.9858 12.0425 75.5912 12.5275 74.7625C13.8182 72.5495 9.89056 71.3589 13.259 66.522C16.6274 61.685 15.3288 53.6406 7.37287 54.6934C-0.583024 55.7462 0.0106206 63.5152 0.0106206 63.5152L4.56896 64.1502C4.56896 64.1502 5.099 59.5444 7.88701 59.577C10.675 59.6097 9.14055 63.9494 7.83665 65.7376C4.96914 69.6851 6.99654 73.3362 8.13613 75.0497Z" fill="#5D4B93"/>
<path d="M12.2955 81.1208C13.6296 81.0331 14.6304 80.0093 14.5308 78.8342C14.4311 77.6591 13.2689 76.7776 11.9348 76.8653C10.6008 76.9531 9.60003 77.9768 9.69964 79.1519C9.79925 80.3271 10.9615 81.2086 12.2955 81.1208Z" fill="#5D4B93"/>
<path d="M85.7311 63.8606C85.6243 64.2719 85.3814 64.6461 85.0332 64.9358C84.685 65.2256 84.2472 65.4179 83.7749 65.4884C83.3027 65.559 82.8173 65.5047 82.3801 65.3323C81.9429 65.1599 81.5736 64.8772 81.3188 64.52C81.0639 64.1627 80.9351 63.7469 80.9485 63.3252C80.9618 62.9034 81.1169 62.4946 81.394 62.1505C81.6711 61.8063 82.0578 61.5423 82.5052 61.3917C82.9526 61.2411 83.4407 61.2107 83.9077 61.3044C84.5341 61.4307 85.078 61.7709 85.4199 62.2502C85.7618 62.7295 85.8737 63.3087 85.7311 63.8606Z" fill="#3F3D56"/>
<path d="M81.3504 59.5933C81.39 60.0473 81.5903 60.479 81.9231 60.8274C82.2559 61.1759 82.7045 61.4235 83.2055 61.5356C83.8336 61.6663 84.6022 61.5939 85.4423 61.0267C87.6817 59.5116 85.3072 55.5664 90.6977 52.4616C96.0882 49.3568 98.3832 42.3885 90.6738 40.3459C84.7904 38.7842 81.4935 41.5645 80.2744 43.4764L79.7444 45.5494L83.566 47.8418C83.566 47.8418 86.2824 43.8732 88.7842 44.9564C91.286 46.0396 87.7957 49.3802 85.7471 50.5077C81.2338 52.9915 81.1596 57.6137 81.3504 59.5933Z" fill="#3F3D56"/>
<path d="M82.0342 56.9624C82.0733 57.4166 82.2735 57.8484 82.6064 58.1969C82.9393 58.5454 83.388 58.793 83.8893 58.9047C84.52 59.0378 85.2992 58.9234 86.1393 58.3561C88.3787 56.8411 85.4052 54.2849 90.7983 51.1801C96.1915 48.0753 98.9159 40.3203 91.2303 38.2707C83.5448 36.221 80.293 43.4764 80.293 43.4764L84.1146 45.7688C84.1146 45.7688 86.831 41.8003 89.3328 42.8812C91.8346 43.962 88.3443 47.3166 86.2983 48.4348C81.7718 50.9186 81.8354 54.9852 82.0342 56.9624Z" fill="#5D4B93"/>
<path d="M85.968 62.811C86.4627 61.7161 85.856 60.4753 84.613 60.0396C83.3701 59.6039 81.9614 60.1383 81.4668 61.2332C80.9721 62.3281 81.5788 63.5688 82.8218 64.0045C84.0648 64.4402 85.4734 63.9059 85.968 62.811Z" fill="#5D4B93"/>
<path d="M98.0307 82.9494C97.8252 83.2053 97.5382 83.4018 97.206 83.514C96.8738 83.6263 96.5113 83.6492 96.1643 83.5801C95.8173 83.5109 95.5013 83.3526 95.2564 83.1253C95.0115 82.898 94.8485 82.6118 94.7882 82.303C94.7278 81.9941 94.7728 81.6764 94.9173 81.39C95.0619 81.1037 95.2996 80.8615 95.6004 80.6941C95.9012 80.5267 96.2515 80.4416 96.6072 80.4495C96.9629 80.4575 97.3079 80.5581 97.5987 80.7387C97.792 80.8588 97.9565 81.0113 98.0828 81.1874C98.2092 81.3635 98.2949 81.5599 98.335 81.7652C98.3751 81.9705 98.3689 82.1808 98.3167 82.384C98.2644 82.5872 98.1673 82.7794 98.0307 82.9494Z" fill="#3F3D56"/>
<path d="M96.3875 78.925C96.2699 79.2477 96.2703 79.5948 96.3887 79.9174C96.5071 80.2399 96.7375 80.5215 97.0474 80.7225C97.293 80.8715 97.5748 80.9679 97.8702 81.004C98.1656 81.0401 98.4665 81.0148 98.7488 80.9302C100.776 80.447 100.408 77.1415 105.109 76.3477C109.811 75.554 113.624 71.3334 108.981 68.0092C105.438 65.4716 102.279 66.5618 100.827 67.5726L99.7904 68.8636L101.683 71.3941C101.683 71.3941 104.823 69.3445 106.188 70.7078C107.553 72.0711 104.089 73.5091 102.319 73.7705C98.4282 74.3541 96.8884 77.5126 96.3875 78.925Z" fill="#3F3D56"/>
<path d="M97.7022 77.2839C97.5843 77.607 97.5846 77.9545 97.703 78.2774C97.8214 78.6004 98.052 78.8824 98.3621 79.0837C98.7517 79.3312 99.3241 79.4479 100.082 79.2658C102.109 78.7826 100.877 76.2848 105.592 75.4934C110.307 74.702 114.663 70.0425 110.02 66.7182C105.377 63.394 100.829 67.5726 100.829 67.5726L102.722 70.1008C102.722 70.1008 105.862 68.0512 107.227 69.4168C108.592 70.7825 105.128 72.2182 103.358 72.4796C99.4646 73.0632 98.2031 75.8739 97.7022 77.2839Z" fill="#5D4B93"/>
<path d="M98.7242 82.0779C99.2873 81.355 99.0786 80.3669 98.258 79.8708C97.4373 79.3748 96.3155 79.5586 95.7524 80.2815C95.1892 81.0043 95.3979 81.9925 96.2186 82.4885C97.0392 82.9846 98.161 82.8008 98.7242 82.0779Z" fill="#5D4B93"/>
<path d="M50.5791 125.114C50.5455 125.114 50.5125 125.106 50.4837 125.091C50.4612 125.08 50.4415 125.065 50.4257 125.047C50.41 125.029 50.3985 125.009 50.392 124.987C50.3856 124.965 50.3843 124.942 50.3882 124.92C50.3921 124.898 50.4011 124.876 50.4148 124.857C52.423 121.622 54.0609 118.219 55.3044 114.698C57.2708 109.2 59.126 100.995 56.7885 93.1182C52.2832 77.956 51.239 68.6463 51.2231 68.553C51.2187 68.5087 51.2343 68.4647 51.2666 68.4306C51.2989 68.3965 51.3451 68.375 51.3953 68.3709C51.4449 68.367 51.4941 68.3805 51.5324 68.4085C51.5706 68.4365 51.5947 68.4767 51.5994 68.5203C51.5994 68.6136 52.6595 77.9 57.1489 93.0318C59.5103 100.988 57.6419 109.263 55.6569 114.805C54.4039 118.346 52.7563 121.768 50.7381 125.023C50.7229 125.049 50.7002 125.071 50.6723 125.087C50.6445 125.103 50.6123 125.112 50.5791 125.114Z" fill="white"/>
</g>
<defs>
<linearGradient id="paint0_linear_2634_3054" x1="66.5597" y1="104.076" x2="69.7267" y2="104.076" gradientUnits="userSpaceOnUse">
<stop stop-color="#ECC4D7"/>
<stop offset="0.42" stop-color="#EFD4D1"/>
<stop offset="1" stop-color="#F2EAC9"/>
</linearGradient>
<linearGradient id="paint1_linear_2634_3054" x1="47.8414" y1="90.6693" x2="106.506" y2="67.6882" gradientUnits="userSpaceOnUse">
<stop stop-color="white" stop-opacity="0"/>
<stop offset="0.99" stop-color="white"/>
</linearGradient>
<linearGradient id="paint2_linear_2634_3054" x1="63.83" y1="77.1038" x2="62.13" y2="82.0179" gradientUnits="userSpaceOnUse">
<stop stop-color="#ECC4D7"/>
<stop offset="0.42" stop-color="#EFD4D1"/>
<stop offset="1" stop-color="#F2EAC9"/>
</linearGradient>
<linearGradient id="paint3_linear_2634_3054" x1="58.4978" y1="76.8731" x2="65.868" y2="76.8731" gradientUnits="userSpaceOnUse">
<stop stop-color="#ECC4D7"/>
<stop offset="0.42" stop-color="#EFD4D1"/>
<stop offset="1" stop-color="#F2EAC9"/>
</linearGradient>
<linearGradient id="paint4_linear_2634_3054" x1="49.9641" y1="68.8306" x2="53.6161" y2="68.8306" gradientUnits="userSpaceOnUse">
<stop stop-color="#ECC4D7"/>
<stop offset="0.42" stop-color="#EFD4D1"/>
<stop offset="1" stop-color="#F2EAC9"/>
</linearGradient>
<linearGradient id="paint5_linear_2634_3054" x1="70.3974" y1="94.6916" x2="55.3162" y2="101.605" gradientUnits="userSpaceOnUse">
<stop stop-opacity="0"/>
<stop offset="1"/>
</linearGradient>
<clipPath id="clip0_2634_3054">
<rect width="112" height="138.833" fill="white"/>
</clipPath>
</defs>
</svg>
