<svg width="22" height="24" viewBox="0 0 22 24" fill="none" xmlns="http://www.w3.org/2000/svg">
<path opacity="0.2" d="M18.5625 15L13.75 20.25V15H18.5625Z" fill="#222222"/>
<path d="M7.5625 9C7.5625 8.80109 7.63493 8.61032 7.76386 8.46967C7.8928 8.32902 8.06766 8.25 8.25 8.25H13.75C13.9323 8.25 14.1072 8.32902 14.2361 8.46967C14.3651 8.61032 14.4375 8.80109 14.4375 9C14.4375 9.19891 14.3651 9.38968 14.2361 9.53033C14.1072 9.67098 13.9323 9.75 13.75 9.75H8.25C8.06766 9.75 7.8928 9.67098 7.76386 9.53033C7.63493 9.38968 7.5625 9.19891 7.5625 9ZM8.25 12.75H13.75C13.9323 12.75 14.1072 12.671 14.2361 12.5303C14.3651 12.3897 14.4375 12.1989 14.4375 12C14.4375 11.8011 14.3651 11.6103 14.2361 11.4697C14.1072 11.329 13.9323 11.25 13.75 11.25H8.25C8.06766 11.25 7.8928 11.329 7.76386 11.4697C7.63493 11.6103 7.5625 11.8011 7.5625 12C7.5625 12.1989 7.63493 12.3897 7.76386 12.5303C7.8928 12.671 8.06766 12.75 8.25 12.75ZM11 14.25H8.25C8.06766 14.25 7.8928 14.329 7.76386 14.4697C7.63493 14.6103 7.5625 14.8011 7.5625 15C7.5625 15.1989 7.63493 15.3897 7.76386 15.5303C7.8928 15.671 8.06766 15.75 8.25 15.75H11C11.1823 15.75 11.3572 15.671 11.4861 15.5303C11.6151 15.3897 11.6875 15.1989 11.6875 15C11.6875 14.8011 11.6151 14.6103 11.4861 14.4697C11.3572 14.329 11.1823 14.25 11 14.25ZM19.25 4.5V14.6897C19.2506 14.8867 19.2152 15.082 19.146 15.264C19.0769 15.446 18.9752 15.6112 18.847 15.75L14.4375 20.5603C14.3103 20.7002 14.1588 20.8111 13.992 20.8866C13.8251 20.9621 13.6462 21.0006 13.4655 21H4.125C3.76033 21 3.41059 20.842 3.15273 20.5607C2.89487 20.2794 2.75 19.8978 2.75 19.5V4.5C2.75 4.10218 2.89487 3.72064 3.15273 3.43934C3.41059 3.15804 3.76033 3 4.125 3H17.875C18.2397 3 18.5894 3.15804 18.8473 3.43934C19.1051 3.72064 19.25 4.10218 19.25 4.5ZM4.125 19.5H13.0625V15C13.0625 14.8011 13.1349 14.6103 13.2639 14.4697C13.3928 14.329 13.5677 14.25 13.75 14.25H17.875V4.5H4.125V19.5ZM14.4375 15.75V18.4406L16.903 15.75H14.4375Z" fill="#222222"/>
</svg>
