<svg width="21" height="21" viewBox="0 0 21 21" fill="none" xmlns="http://www.w3.org/2000/svg">
<rect width="21" height="21" transform="matrix(0 1 1 0 0 0)" fill="white"/>
<path d="M13.1031 10.5C13.1031 10.3833 13.0812 10.2705 13.0375 10.1614C12.9937 10.0517 12.9354 9.96043 12.8625 9.88751L8.83745 5.86251C8.67703 5.7021 8.47287 5.62189 8.22495 5.62189C7.97703 5.62189 7.77287 5.7021 7.61245 5.86251C7.45203 6.02293 7.37183 6.2271 7.37183 6.47501C7.37183 6.72293 7.45203 6.9271 7.61245 7.08751L11.025 10.5L7.61245 13.9125C7.45203 14.0729 7.37183 14.2771 7.37183 14.525C7.37183 14.7729 7.45203 14.9771 7.61245 15.1375C7.77287 15.2979 7.97703 15.3781 8.22495 15.3781C8.47287 15.3781 8.67703 15.2979 8.83745 15.1375L12.8625 11.1125C12.95 11.025 13.0118 10.9302 13.048 10.8281C13.0847 10.7261 13.1031 10.6167 13.1031 10.5Z" fill="black"/>
</svg>
