<svg width="23" height="23" viewBox="0 0 23 23" fill="none" xmlns="http://www.w3.org/2000/svg">
<path d="M21.8043 2.65068C21.6243 1.81812 20.8528 1.30068 20.0175 1.45397C19.6206 1.52679 19.2552 1.72853 18.9552 1.99449C18.7914 2.13967 18.6443 2.30533 18.5197 2.48532C18.4636 2.56629 18.4132 2.65061 18.3678 2.73799C18.3336 2.80382 18.3024 2.87119 18.2734 2.93946C18.2353 3.02921 18.2525 3.05588 18.1597 3.0609C17.9998 3.06955 17.7655 2.95534 17.6061 2.9175C17.3858 2.86519 17.1642 2.81786 16.942 2.77454C16.4693 2.68242 15.9931 2.60847 15.5154 2.54774C14.4504 2.41238 13.3774 2.3418 12.3043 2.3179C10.1751 2.27049 8.01246 2.37756 5.92121 2.80177C5.72342 2.84189 5.52627 2.88532 5.33011 2.9328C5.22637 2.95791 5.1229 2.98413 5.01977 3.01163C4.9796 3.02234 4.93947 3.03324 4.89941 3.04435C4.7833 3.07653 4.82151 3.09022 4.75438 3.00791C4.68668 2.92491 4.6483 2.76528 4.59452 2.66939C4.54067 2.57336 4.47969 2.48215 4.41336 2.3943C4.27672 2.21333 4.11913 2.04843 3.9419 1.9068C3.35927 1.44121 2.51924 1.23056 1.85678 1.6607C1.01663 2.20621 1.01593 3.36247 1.41956 4.1781C1.52553 4.39224 1.65833 4.59163 1.82038 4.76747C1.9055 4.85984 1.99786 4.94556 2.09545 5.02461C2.15094 5.06955 2.30312 5.1432 2.33357 5.19939C2.36559 5.25847 2.35652 5.38169 2.36473 5.44691C2.49336 6.46884 2.62199 7.49077 2.75062 8.51269C2.94671 10.0705 3.13503 11.6293 3.33049 13.1876C3.52396 14.73 3.72105 16.2719 3.91385 17.8144C3.95903 18.1759 4.0135 18.5375 4.04954 18.9C4.10071 19.4148 4.30427 19.7846 4.71697 20.1071C5.2872 20.5526 6.00698 20.8022 6.69628 20.994C7.46949 21.2092 8.26735 21.35 9.06396 21.4422C11.167 21.6855 13.3372 21.6261 15.414 21.2059C16.1389 21.0593 16.8665 20.8664 17.5399 20.5558C18.0847 20.3045 18.7264 19.9253 18.8996 19.3064C18.9729 19.0446 18.975 18.7277 19.0086 18.4576C19.074 17.9311 19.1394 17.4046 19.2048 16.8781C19.3019 16.0965 19.3887 15.3122 19.5002 14.5328C19.7263 12.9538 19.9022 11.3653 20.0971 9.78208C20.1915 9.0148 20.2878 8.2452 20.3834 7.47724C20.4498 6.9435 20.5162 6.40975 20.5826 5.87601C20.6041 5.70393 20.6255 5.53186 20.6469 5.35978C20.6657 5.20817 20.6538 5.21152 20.7875 5.11412C21.5366 4.56835 22.0065 3.57863 21.8043 2.65068ZM18.3755 4.03793C18.8227 4.18806 19.4614 4.38435 19.7506 4.79251C19.9488 5.07212 19.5493 5.29684 19.3312 5.42297C18.5335 5.88418 17.5712 6.08879 16.6761 6.25536C13.7443 6.80097 10.6437 6.82896 7.68823 6.46357C6.55529 6.3235 5.39966 6.1344 4.32808 5.72675C4.0338 5.6148 3.73474 5.48582 3.47788 5.30082C3.37205 5.2246 3.18752 5.09337 3.18138 4.94524C3.16973 4.66451 3.69944 4.42689 3.88898 4.33365C4.38477 4.08978 4.92279 3.9308 5.45798 3.79929C6.71922 3.48937 8.02091 3.33916 9.31503 3.25486C10.8116 3.15738 12.3164 3.15991 13.8125 3.26342C15.0955 3.35217 16.3867 3.50574 17.6353 3.82249C17.8844 3.8857 18.1318 3.95623 18.3755 4.03793ZM19.07 10.9374C18.9883 11.5906 18.9067 12.2438 18.825 12.897C18.7779 13.2736 18.7309 13.6502 18.6838 14.0268C18.6757 14.0914 18.6668 14.156 18.6595 14.2208C18.6303 14.4816 18.4535 14.631 18.243 14.7754C17.5298 15.2649 16.6038 15.469 15.7698 15.6369C15.8075 14.965 15.8452 14.2932 15.883 13.6213C15.9072 13.1903 15.9314 12.7594 15.9556 12.3284C15.962 12.2136 15.9462 12.0692 15.9764 11.9579C15.9806 11.9425 15.9702 11.8998 15.9804 11.8869C16.0204 11.8366 16.315 11.8188 16.3831 11.8054C17.293 11.6258 18.2526 11.391 19.07 10.9374ZM14.6206 20.4622C13.7351 20.6104 12.8349 20.672 11.9379 20.6893C11.9379 20.0578 11.9379 19.4263 11.9379 18.7947C11.9379 18.3606 11.9379 17.9264 11.9379 17.4922C11.9379 17.3492 11.9379 17.2061 11.9379 17.0631C11.9379 17.0338 11.9196 16.9259 11.9379 16.9001C11.9616 16.8668 12.239 16.8936 12.2973 16.8919C12.4306 16.8879 12.5638 16.8829 12.697 16.877C12.9302 16.8665 13.1635 16.8546 13.3962 16.8375C13.8758 16.8021 14.3568 16.7566 14.833 16.6895C14.7623 17.9471 14.6915 19.2046 14.6206 20.4622ZM8.24758 18.1251C8.2206 17.6466 8.19363 17.1681 8.16665 16.6895C9.00589 16.8077 9.8556 16.8668 10.7024 16.8919C10.7627 16.8937 11.0326 16.8689 11.0621 16.9092C11.073 16.9241 11.0585 16.9741 11.0621 16.992C11.0842 17.1049 11.0621 17.2461 11.0621 17.3609C11.0621 18.2253 11.0621 19.0897 11.0621 19.9541C11.0621 20.1992 11.0621 20.4443 11.0621 20.6894C10.2953 20.6746 9.52761 20.626 8.76763 20.5212C8.69904 20.5118 8.41648 20.5082 8.37924 20.4575C8.36793 20.4421 8.37857 20.3914 8.37452 20.3738C8.34648 20.2523 8.35929 20.104 8.35229 19.98C8.31738 19.3617 8.28248 18.7434 8.24758 18.1251ZM6.75946 15.5361C6.05669 15.3695 5.26025 15.165 4.67462 14.7195C4.38446 14.4987 4.36427 14.3657 4.32396 14.0469C4.22315 13.2497 4.12235 12.4526 4.02155 11.6554C3.9913 11.4162 3.96106 11.177 3.93081 10.9378C4.65589 11.3396 5.48044 11.5626 6.28564 11.7372C6.49663 11.783 6.71927 11.8061 6.92691 11.8638C7.00036 11.8842 6.99541 11.8658 7.02034 11.9062C7.05699 11.9657 7.03373 12.1439 7.03753 12.2115C7.08691 13.088 7.13628 13.9644 7.18565 14.8408C7.2006 15.1062 7.21555 15.3716 7.2305 15.637C7.07288 15.6053 6.91597 15.5732 6.75946 15.5361ZM9.48355 7.50167C10.0126 7.53213 10.5424 7.55027 11.0723 7.55678C10.9985 8.17309 11.0621 8.83304 11.0621 9.45341C11.0621 10.0841 11.0621 10.7147 11.0621 11.3454C10.1667 11.3328 9.26997 11.2897 8.38026 11.1851C8.3002 11.1757 7.89862 11.1776 7.8532 11.1174C7.84367 11.1048 7.85493 11.0695 7.8497 11.0549C7.81689 10.9629 7.83633 10.8165 7.83088 10.7194C7.78212 9.8499 7.73336 8.98039 7.6846 8.11089C7.6702 7.85411 7.6558 7.59734 7.64141 7.34056C8.25259 7.41525 8.86895 7.46536 9.48355 7.50167ZM13.6883 15.9322C13.106 15.9829 12.5222 16.0101 11.9379 16.0196C11.9379 15.3725 11.9379 14.7254 11.9379 14.0784C11.9379 13.6424 11.9379 13.2065 11.9379 12.7705C11.9379 12.6317 11.9379 12.4929 11.9379 12.354C11.9379 12.2203 11.914 12.229 12.071 12.2233C13.0827 12.1861 14.0903 12.1433 15.0955 12.0133C15.0282 13.2151 14.9608 14.417 14.8934 15.6188C14.8917 15.6488 14.9043 15.7676 14.8838 15.7909C14.8224 15.8603 14.4609 15.85 14.3728 15.8607C14.145 15.8884 13.9168 15.9118 13.6883 15.9322ZM9.84613 15.9721C9.46666 15.948 9.08781 15.9146 8.71013 15.8704C8.57801 15.855 8.17347 15.8651 8.11449 15.7609C8.08555 15.7098 8.10393 15.5728 8.1007 15.5154C8.09214 15.363 8.08357 15.2105 8.07501 15.0581C8.03003 14.2574 7.98505 13.4567 7.94007 12.6559C7.92804 12.4417 7.91601 12.2275 7.90397 12.0133C8.78315 12.1266 9.6696 12.1873 10.5554 12.2131C10.6277 12.2152 11.016 12.1758 11.0621 12.2296C11.0709 12.24 11.0581 12.2797 11.0621 12.2924C11.0908 12.3843 11.0621 12.5331 11.0621 12.629C11.0621 13.5015 11.0621 14.374 11.0621 15.2465C11.0621 15.5042 11.0621 15.7619 11.0621 16.0195C10.6563 16.013 10.2511 15.9986 9.84613 15.9721ZM13.5161 7.50173C14.1307 7.46547 14.7469 7.41508 15.3581 7.34056C15.3219 7.9854 15.2858 8.63023 15.2496 9.27507C15.2252 9.70951 15.2009 10.144 15.1765 10.5784C15.1688 10.7168 15.161 10.8551 15.1532 10.9935C15.1452 11.1375 15.1624 11.1166 14.991 11.1392C13.9785 11.2723 12.9585 11.3311 11.9379 11.3454C11.9379 10.7147 11.9379 10.0841 11.9379 9.45341C11.9379 8.83298 12.0014 8.17311 11.9277 7.55678C12.4574 7.55028 12.9871 7.53165 13.5161 7.50173ZM4.09518 6.56932C4.8999 6.86698 5.74436 7.05029 6.58936 7.19046C6.76704 7.21994 6.74558 7.18331 6.76227 7.3199C6.77774 7.44651 6.77677 7.5776 6.78393 7.70492C6.83189 8.55731 6.87985 9.40969 6.92781 10.2621C6.94121 10.5001 6.95461 10.7382 6.96799 10.9762C6.13553 10.8223 5.28205 10.6326 4.51682 10.2589C4.23062 10.1192 3.82072 9.92457 3.75985 9.57775C3.617 8.76388 3.5558 7.927 3.45443 7.10697C3.41865 6.81749 3.38287 6.52802 3.34709 6.23854C3.58568 6.36819 3.84087 6.47486 4.09518 6.56932ZM19.6533 6.23812C19.5683 6.91457 19.4833 7.59102 19.3983 8.26747C19.3512 8.64295 19.304 9.01843 19.2568 9.39391C19.249 9.4562 19.2448 9.52059 19.2342 9.58236C19.1819 9.88683 18.8456 10.0665 18.5895 10.2006C17.8 10.614 16.9017 10.8154 16.0316 10.9762C16.0704 10.2888 16.1092 9.60134 16.148 8.9139C16.1724 8.48274 16.1967 8.05157 16.221 7.62041C16.2265 7.52297 16.2041 7.36088 16.2409 7.26925C16.2969 7.12959 16.6992 7.14082 16.8556 7.11121C17.8021 6.93199 18.7997 6.70104 19.6533 6.23812ZM2.05135 2.8367C2.245 1.94314 3.25073 2.37126 3.64895 2.83965C3.70644 2.90728 3.99819 3.25774 3.95347 3.35029C3.93433 3.38992 3.74233 3.44186 3.69846 3.46172C3.62077 3.49688 3.54121 3.53018 3.46522 3.56892C3.12778 3.74097 2.77604 3.96315 2.54527 4.26971C2.18985 3.9089 1.94066 3.34842 2.05135 2.8367ZM4.92806 18.8953C4.79406 17.8169 4.66007 16.7386 4.52608 15.6602C5.27571 16.079 6.13042 16.3002 6.96373 16.4782C7.02723 16.4918 7.24371 16.5008 7.28171 16.5503C7.29294 16.5649 7.28228 16.6101 7.2861 16.6283C7.31006 16.7419 7.30001 16.8749 7.30653 16.9906C7.35469 17.8448 7.40285 18.699 7.45101 19.5531C7.46487 19.799 7.47873 20.0448 7.49259 20.2907C6.81463 20.1394 6.10818 19.945 5.51114 19.5777C5.2842 19.4381 4.93049 19.2007 4.92806 18.8953ZM18.0684 18.9492C18.0684 19.2345 17.6962 19.462 17.4882 19.5864C16.8874 19.9456 16.1848 20.1399 15.5071 20.291C15.5428 19.6589 15.5784 19.0267 15.614 18.3945C15.6383 17.9642 15.6625 17.534 15.6868 17.1037C15.6946 16.965 15.7024 16.8264 15.7102 16.6878C15.7173 16.5611 15.6925 16.5764 15.7948 16.5276C15.9904 16.4343 16.2809 16.4282 16.4933 16.3765C16.708 16.3243 16.9222 16.2659 17.1344 16.2038C17.5916 16.0702 18.058 15.8931 18.4747 15.6598C18.3393 16.7562 18.2039 17.8527 18.0684 18.9492ZM20.6881 3.97934C20.6206 4.08237 20.5426 4.17914 20.4564 4.26714C20.1658 3.88342 19.7134 3.64605 19.2847 3.45271C19.1512 3.39249 19.0185 3.40428 19.0902 3.24833C19.1457 3.12757 19.2139 3.014 19.2953 2.90887C19.4356 2.7276 19.6091 2.56931 19.809 2.45621C20.1347 2.27192 20.5878 2.20842 20.8314 2.55641C21.1233 2.97335 20.9371 3.59152 20.6881 3.97934Z" fill="black"/>
</svg>
