<svg width="15" height="21" viewBox="0 0 15 21" fill="none" xmlns="http://www.w3.org/2000/svg">
<path d="M7.50015 12.0548C6.8259 12.0548 6.16679 11.84 5.60617 11.4375C5.04554 11.035 4.60859 10.4629 4.35057 9.79357C4.09254 9.12424 4.02503 8.38773 4.15657 7.67718C4.28811 6.96663 4.6128 6.31394 5.08956 5.80166C5.56633 5.28938 6.17378 4.94051 6.83507 4.79918C7.49637 4.65784 8.18183 4.73038 8.80476 5.00762C9.42768 5.28487 9.96011 5.75436 10.3347 6.35674C10.7093 6.95912 10.9092 7.66732 10.9092 8.3918C10.9082 9.36293 10.5486 10.294 9.90955 10.9806C9.27045 11.6673 8.40397 12.0536 7.50015 12.0548ZM7.50015 6.19399C7.0956 6.19399 6.70013 6.32289 6.36376 6.56439C6.02739 6.80589 5.76522 7.14914 5.6104 7.55073C5.45559 7.95233 5.41508 8.39423 5.494 8.82057C5.57293 9.2469 5.76774 9.63851 6.0538 9.94588C6.33986 10.2532 6.70433 10.4626 7.10111 10.5474C7.49789 10.6322 7.90916 10.5886 8.28292 10.4223C8.65667 10.256 8.97613 9.97426 9.20089 9.61283C9.42564 9.2514 9.54561 8.82648 9.54561 8.3918C9.54506 7.80908 9.32939 7.2504 8.94591 6.83836C8.56243 6.42632 8.04248 6.19458 7.50015 6.19399Z" fill="black"/>
<path d="M7.5 20.8462L1.74819 13.5576C1.66827 13.4481 1.58917 13.338 1.51092 13.2272C0.528403 11.8365 -0.00237354 10.138 7.97923e-06 8.39201C7.97923e-06 6.25474 0.790184 4.205 2.1967 2.69372C3.60323 1.18243 5.51088 0.333405 7.5 0.333405C9.48912 0.333405 11.3968 1.18243 12.8033 2.69372C14.2098 4.205 15 6.25474 15 8.39201C15.0024 10.1372 14.4718 11.835 13.4898 13.225L13.4891 13.2272C13.4891 13.2272 13.2845 13.5158 13.2539 13.5546L7.5 20.8462ZM2.5991 12.3444C2.60046 12.3444 2.75864 12.57 2.79478 12.6184L7.5 18.581L12.2114 12.6103C12.2414 12.57 12.4009 12.3429 12.4016 12.3422C13.2042 11.206 13.6379 9.81841 13.6364 8.39201C13.6364 6.64333 12.9898 4.96627 11.8391 3.72977C10.6883 2.49327 9.12746 1.79861 7.5 1.79861C5.87254 1.79861 4.31173 2.49327 3.16094 3.72977C2.01015 4.96627 1.36364 6.64333 1.36364 8.39201C1.36221 9.81929 1.79644 11.2077 2.59978 12.3444H2.5991Z" fill="black"/>
</svg>
