<svg width="19" height="20" viewBox="0 0 19 20" fill="none" xmlns="http://www.w3.org/2000/svg">
<path fill-rule="evenodd" clip-rule="evenodd" d="M12.625 17.7917C12.6251 18.3173 12.4266 18.8235 12.0692 19.2089C11.7119 19.5943 11.222 19.8304 10.6979 19.8698L10.5416 19.875H8.4583C7.9327 19.8752 7.42646 19.6767 7.04106 19.3193C6.65566 18.9619 6.41959 18.4721 6.38017 17.948L6.37496 17.7917H12.625ZM9.49996 0.083374C11.3906 0.0833428 13.2073 0.817638 14.5669 2.13137C15.9265 3.4451 16.7226 5.23555 16.7875 7.12504L16.7916 7.37504V11.2959L18.6895 15.0917C18.7724 15.2573 18.8138 15.4406 18.8104 15.6257C18.8069 15.8109 18.7586 15.9924 18.6696 16.1548C18.5806 16.3172 18.4536 16.4556 18.2994 16.5582C18.1452 16.6608 17.9685 16.7245 17.7843 16.7438L17.6645 16.75H1.33538C1.15014 16.7501 0.967638 16.7052 0.803528 16.6193C0.639418 16.5334 0.498588 16.4089 0.393107 16.2567C0.287626 16.1044 0.220639 15.9288 0.197885 15.7449C0.175132 15.5611 0.197291 15.3745 0.262464 15.2011L0.310381 15.0917L2.2083 11.2959V7.37504C2.2083 5.44117 2.97652 3.58651 4.34398 2.21905C5.71143 0.851601 7.56609 0.083374 9.49996 0.083374ZM9.49996 2.16671C8.15781 2.16678 6.8675 2.68498 5.89811 3.61323C4.92872 4.54148 4.35509 5.80811 4.29684 7.149L4.29163 7.37504V11.2959C4.29164 11.5542 4.2436 11.8103 4.14996 12.0511L4.07184 12.2282L2.85309 14.6667H16.1479L14.9291 12.2271C14.8135 11.9962 14.7418 11.7457 14.7177 11.4886L14.7083 11.2959V7.37504C14.7083 5.9937 14.1596 4.66894 13.1828 3.69219C12.2061 2.71544 10.8813 2.16671 9.49996 2.16671Z" fill="black"/>
</svg>
