<svg width="18" height="18" viewBox="0 0 18 18" fill="none" xmlns="http://www.w3.org/2000/svg">
<path d="M3.75012 14.25H4.80012L11.2689 7.78128L10.2189 6.73128L3.75012 13.2V14.25ZM14.4751 6.69378L11.2876 3.54378L12.3376 2.49378C12.6251 2.20628 12.9784 2.06253 13.3974 2.06253C13.8159 2.06253 14.1689 2.20628 14.4564 2.49378L15.5064 3.54378C15.7939 3.83128 15.9439 4.17828 15.9564 4.58478C15.9689 4.99078 15.8314 5.33753 15.5439 5.62503L14.4751 6.69378ZM3.00012 15.75C2.78762 15.75 2.60962 15.678 2.46612 15.534C2.32212 15.3905 2.25012 15.2125 2.25012 15V12.8813C2.25012 12.7813 2.26887 12.6845 2.30637 12.591C2.34387 12.497 2.40012 12.4125 2.47512 12.3375L10.2001 4.61253L13.3876 7.80003L5.66262 15.525C5.58762 15.6 5.50337 15.6563 5.40987 15.6938C5.31587 15.7313 5.21887 15.75 5.11887 15.75H3.00012ZM10.7439 7.25628L10.2189 6.73128L11.2689 7.78128L10.7439 7.25628Z" fill="black"/>
</svg>
