<svg width="60" height="60" viewBox="0 0 60 60" fill="none" xmlns="http://www.w3.org/2000/svg">
<path d="M30 0C33.9782 0 37.7936 1.58035 40.6066 4.3934C43.4196 7.20644 45 11.0218 45 15C45 18.9782 43.4196 22.7936 40.6066 25.6066C37.7936 28.4196 33.9782 30 30 30C26.0218 30 22.2064 28.4196 19.3934 25.6066C16.5804 22.7936 15 18.9782 15 15C15 11.0218 16.5804 7.20644 19.3934 4.3934C22.2064 1.58035 26.0218 0 30 0ZM30 7.5C28.0109 7.5 26.1032 8.29018 24.6967 9.6967C23.2902 11.1032 22.5 13.0109 22.5 15C22.5 16.9891 23.2902 18.8968 24.6967 20.3033C26.1032 21.7098 28.0109 22.5 30 22.5C31.9891 22.5 33.8968 21.7098 35.3033 20.3033C36.7098 18.8968 37.5 16.9891 37.5 15C37.5 13.0109 36.7098 11.1032 35.3033 9.6967C33.8968 8.29018 31.9891 7.5 30 7.5ZM30 33.75C40.0125 33.75 60 38.7375 60 48.75V60H0V48.75C0 38.7375 19.9875 33.75 30 33.75ZM30 40.875C18.8625 40.875 7.125 46.35 7.125 48.75V52.875H52.875V48.75C52.875 46.35 41.1375 40.875 30 40.875Z" fill="#383431"/>
</svg>
