<svg width="31" height="31" viewBox="0 0 31 31" fill="none" xmlns="http://www.w3.org/2000/svg">
<circle cx="15.5" cy="15.5" r="14.6143" fill="white" stroke="black" stroke-width="1.77143"/>
<path fill-rule="evenodd" clip-rule="evenodd" d="M10.0104 9.68749C10.0104 6.65568 12.4682 4.19791 15.5 4.19791C18.5318 4.19791 20.9896 6.65568 20.9896 9.68749C20.9896 12.7193 18.5318 15.1771 15.5 15.1771C12.4682 15.1771 10.0104 12.7193 10.0104 9.68749ZM15.5 6.13541C13.5382 6.13541 11.9479 7.72573 11.9479 9.68749C11.9479 11.6493 13.5382 13.2396 15.5 13.2396C17.4617 13.2396 19.0521 11.6493 19.0521 9.68749C19.0521 7.72573 17.4617 6.13541 15.5 6.13541Z" fill="black"/>
<path fill-rule="evenodd" clip-rule="evenodd" d="M10.3333 19.0521C8.72824 19.0521 7.42706 20.3532 7.42706 21.9583V23.4932C7.42706 23.5166 7.444 23.5365 7.46707 23.5403C12.7871 24.4088 18.2128 24.4088 23.5329 23.5403C23.556 23.5365 23.5729 23.5166 23.5729 23.4932V21.9583C23.5729 20.3532 22.2717 19.0521 20.6666 19.0521H20.2264C20.1923 19.0521 20.1585 19.0575 20.1261 19.068L19.0082 19.4331C16.7286 20.1774 14.2714 20.1774 11.9918 19.4331L10.8738 19.068C10.8415 19.0575 10.8076 19.0521 10.7736 19.0521H10.3333ZM5.48956 21.9583C5.48956 19.2832 7.65818 17.1146 10.3333 17.1146H10.7736C11.0119 17.1146 11.2487 17.1523 11.4752 17.2262L12.5932 17.5913C14.482 18.208 16.518 18.208 18.4068 17.5913L19.5247 17.2262C19.7513 17.1523 19.9881 17.1146 20.2264 17.1146H20.6666C23.3418 17.1146 25.5104 19.2832 25.5104 21.9583V23.4932C25.5104 24.4661 24.8053 25.2957 23.8451 25.4524C18.3183 26.3548 12.6817 26.3548 7.15487 25.4524C6.19466 25.2957 5.48956 24.4661 5.48956 23.4932V21.9583Z" fill="black"/>
</svg>
