<svg width="15" height="16" viewBox="0 0 15 16" fill="none" xmlns="http://www.w3.org/2000/svg">
<path d="M13.5511 15.2653L8.77841 10.4858C8.35227 10.8272 7.86222 11.0974 7.30824 11.2966C6.75426 11.4957 6.16477 11.5953 5.53977 11.5953C3.99148 11.5953 2.68125 11.0585 1.60909 9.98478C0.536364 8.91053 0 7.59815 0 6.04765C0 4.49715 0.536364 3.18478 1.60909 2.11053C2.68125 1.03684 3.99148 0.5 5.53977 0.5C7.08807 0.5 8.39858 1.03684 9.47131 2.11053C10.5435 3.18478 11.0795 4.49715 11.0795 6.04765C11.0795 6.67354 10.9801 7.26387 10.7812 7.81863C10.5824 8.3734 10.3125 8.86415 9.97159 9.2909L14.7656 14.0917C14.9219 14.2482 15 14.4403 15 14.6679C15 14.8954 14.9148 15.0946 14.7443 15.2653C14.5881 15.4218 14.3892 15.5 14.1477 15.5C13.9062 15.5 13.7074 15.4218 13.5511 15.2653ZM5.53977 9.88834C6.60511 9.88834 7.5108 9.51508 8.25682 8.76856C9.00227 8.02148 9.375 7.11451 9.375 6.04765C9.375 4.9808 9.00227 4.07383 8.25682 3.32674C7.5108 2.58023 6.60511 2.20697 5.53977 2.20697C4.47443 2.20697 3.56875 2.58023 2.82273 3.32674C2.07727 4.07383 1.70455 4.9808 1.70455 6.04765C1.70455 7.11451 2.07727 8.02148 2.82273 8.76856C3.56875 9.51508 4.47443 9.88834 5.53977 9.88834Z" fill="#AAAAAA"/>
</svg>
