<svg width="16" height="17" viewBox="0 0 16 17" fill="none" xmlns="http://www.w3.org/2000/svg">
<g clip-path="url(#clip0_2634_1834)">
<path d="M8.21914 1.67786C4.49496 1.67786 1.47559 4.69723 1.47559 8.42141C1.47559 12.1456 4.49496 15.165 8.21914 15.165C11.9433 15.165 14.9627 12.1456 14.9627 8.42141C14.9627 4.69723 11.9433 1.67786 8.21914 1.67786Z" fill="#FFDE17"/>
<path d="M8.21907 15.392C6.35726 15.392 4.60684 14.6669 3.29021 13.3503C1.97361 12.0337 1.24854 10.2833 1.24854 8.42147C1.24854 6.55965 1.97361 4.80924 3.29021 3.49261C4.60684 2.17601 6.35726 1.45093 8.21907 1.45093C10.0809 1.45093 11.8313 2.17601 13.1479 3.49261C14.4645 4.80924 15.1896 6.55965 15.1896 8.42147C15.1896 10.2833 14.4645 12.0337 13.1479 13.3503C11.8313 14.6669 10.0809 15.392 8.21907 15.392ZM8.21907 1.9049C4.62582 1.9049 1.7025 4.82821 1.7025 8.42147C1.7025 12.0147 4.62582 14.938 8.21907 14.938C11.8123 14.938 14.7356 12.0147 14.7356 8.42147C14.7356 4.82821 11.8123 1.9049 8.21907 1.9049Z" fill="black"/>
<path d="M6.14751 6.90831C6.5151 6.90831 6.81309 6.61032 6.81309 6.24273C6.81309 5.87514 6.5151 5.57715 6.14751 5.57715C5.77992 5.57715 5.48193 5.87514 5.48193 6.24273C5.48193 6.61032 5.77992 6.90831 6.14751 6.90831Z" fill="#603913"/>
<path d="M6.14745 7.13532C5.65528 7.13532 5.25488 6.73495 5.25488 6.24278C5.25488 5.75062 5.65528 5.35022 6.14745 5.35022C6.63961 5.35022 7.03998 5.75062 7.03998 6.24278C7.03998 6.73495 6.63961 7.13532 6.14745 7.13532ZM6.14745 5.80419C5.9056 5.80419 5.70885 6.00094 5.70885 6.24278C5.70885 6.4846 5.9056 6.68135 6.14745 6.68135C6.38929 6.68135 6.58601 6.4846 6.58601 6.24278C6.58601 6.00094 6.38929 5.80419 6.14745 5.80419Z" fill="black"/>
<path d="M10.291 6.90812C10.6586 6.90812 10.9566 6.61015 10.9566 6.24257C10.9566 5.875 10.6586 5.57703 10.291 5.57703C9.92346 5.57703 9.62549 5.875 9.62549 6.24257C9.62549 6.61015 9.92346 6.90812 10.291 6.90812Z" fill="#603913"/>
<path d="M10.2909 7.13532C9.79881 7.13532 9.39844 6.73495 9.39844 6.24278C9.39844 5.75062 9.79881 5.35022 10.2909 5.35022C10.7831 5.35022 11.1835 5.75062 11.1835 6.24278C11.1835 6.73495 10.7831 7.13532 10.2909 7.13532ZM10.2909 5.80419C10.0491 5.80419 9.85241 6.00094 9.85241 6.24278C9.85241 6.4846 10.0491 6.68135 10.2909 6.68135C10.5328 6.68135 10.7295 6.4846 10.7295 6.24278C10.7295 6.00094 10.5328 5.80419 10.2909 5.80419Z" fill="black"/>
<path d="M8.21899 11.8724C8.21893 11.8724 8.21905 11.8724 8.21899 11.8724C6.95578 11.8724 5.74371 11.3365 4.89358 10.4022C4.8092 10.3095 4.81598 10.1659 4.90871 10.0816C5.00141 9.99714 5.14501 10.004 5.22936 10.0967C5.99366 10.9366 7.08334 11.4184 8.21899 11.4184C9.35467 11.4184 10.4444 10.9367 11.2087 10.0967C11.2931 10.004 11.4366 9.99717 11.5294 10.0816C11.6221 10.1659 11.6288 10.3095 11.5445 10.4022C10.6943 11.3365 9.48211 11.8724 8.21899 11.8724Z" fill="black"/>
</g>
<defs>
<clipPath id="clip0_2634_1834">
<rect width="15.4955" height="15.4955" fill="white" transform="translate(0.471191 0.673706)"/>
</clipPath>
</defs>
</svg>
