<svg width="21" height="20" viewBox="0 0 21 20" fill="none" xmlns="http://www.w3.org/2000/svg">
<g filter="url(#filter0_d_2634_2280)">
<path d="M10.1875 16.375C14.7093 16.375 18.375 12.7093 18.375 8.1875C18.375 3.66567 14.7093 0 10.1875 0C5.66567 0 2 3.66567 2 8.1875C2 12.7093 5.66567 16.375 10.1875 16.375Z" fill="#3D277D"/>
</g>
<path d="M14.843 4.13378C14.3858 3.66347 13.6305 3.66347 13.1732 4.13378L9.11179 8.31127C8.65454 8.78158 7.89924 8.78158 7.44199 8.31127L7.20137 8.06378C6.74412 7.59346 5.98882 7.59347 5.53157 8.06378L5.24522 8.35832C4.80582 8.81026 4.80582 9.52979 5.24522 9.98173L7.44199 12.2413C7.89924 12.7116 8.65454 12.7116 9.11179 12.2413L15.1294 6.05173C15.5688 5.59979 15.5688 4.88026 15.1294 4.42832L14.843 4.13378Z" fill="white"/>
<defs>
<filter id="filter0_d_2634_2280" x="0.854645" y="0" width="19.2384" height="19.2384" filterUnits="userSpaceOnUse" color-interpolation-filters="sRGB">
<feFlood flood-opacity="0" result="BackgroundImageFix"/>
<feColorMatrix in="SourceAlpha" type="matrix" values="0 0 0 0 0 0 0 0 0 0 0 0 0 0 0 0 0 0 127 0" result="hardAlpha"/>
<feOffset dx="0.286339" dy="1.43169"/>
<feGaussianBlur stdDeviation="0.715847"/>
<feComposite in2="hardAlpha" operator="out"/>
<feColorMatrix type="matrix" values="0 0 0 0 0 0 0 0 0 0 0 0 0 0 0 0 0 0 0.25 0"/>
<feBlend mode="normal" in2="BackgroundImageFix" result="effect1_dropShadow_2634_2280"/>
<feBlend mode="normal" in="SourceGraphic" in2="effect1_dropShadow_2634_2280" result="shape"/>
</filter>
</defs>
</svg>
